<?xml version="1.0" encoding="UTF-8"?>
<svg width="128px" height="128px" viewBox="0 0 128 128" version="1.1" xmlns="http://www.w3.org/2000/svg" xmlns:xlink="http://www.w3.org/1999/xlink">
    <!-- Generator: Sketch 53.1 (72631) - https://sketchapp.com -->
    <title>google</title>
    <desc>Created with Sketch.</desc>
    <g id="ayudas-visuales" stroke="none" stroke-width="1" fill="none" fill-rule="evenodd">
        <g id="TEST_PAGES" transform="translate(-344.000000, -1185.000000)" fill-rule="nonzero">
            <g id="google" transform="translate(344.000000, 1185.000000)">
                <path d="M97.6886241,39.3777652 C89.7301847,27.9936135 77.1900921,21.4639517 63.2827991,21.4639517 C51.8180859,21.4639517 41.0987164,26.0231762 33.0995358,34.3010361 L31.2582841,36.2069829 L15,22.2485859 L17.010849,20.1017482 C22.8899057,13.826887 29.8342354,8.88609369 37.6505541,5.41656869 C45.7479559,1.82248853 54.3721515,0 63.2831149,0 C73.7574052,0 84.1085243,2.57361303 93.2171933,7.44296097 C102.307229,12.3025089 110.182291,19.4581078 115.990287,28.1371365 L116.738789,29.2552877 C117.232421,29.9928186 117.004397,30.994318 116.240419,31.4454353 L100.409445,40.7858075 C99.7155801,41.1955118 98.8236942,41.0014081 98.3619601,40.3406967 L97.6886241,39.3777652 Z" id="SVGCleanerId_1" fill="#CD2900"></path>
                <path d="M8.17871075,94.4432428 C2.82840296,85.0222651 0,74.3150156 0,63.4792652 C0,49.1288419 4.74688962,35.5819438 13.7279231,24.3035441 L15.5618035,22 L32,35.9431355 L30.3707709,38.0537704 C24.6833152,45.4225227 21.6767602,54.2145723 21.6767602,63.4795809 C21.6767602,70.4306264 23.4384859,77.3219994 26.7719722,83.4085844 L28.050644,85.7433855 L9.63042632,97 L8.17871075,94.4432428 Z" id="SVGCleanerId_2" fill="#FFCE00"></path>
                <path d="M64.4088689,128 C43.3144882,128 23.5980095,117.481853 11.666566,99.864947 L10,97.4039333 L28.3249215,86 L29.858429,88.1914406 C37.7873197,99.523104 50.7035234,106.288333 64.4088689,106.288333 C75.7925179,106.288333 86.8757531,101.543143 94.8163936,93.2692 L96.6680983,91.3396578 L113,105.445398 L110.98221,107.617012 C105.069839,113.979001 98.0822023,118.988648 90.2139659,122.507168 C82.0627817,126.152001 73.3809512,128 64.4088689,128 Z" id="SVGCleanerId_3" fill="#40A459"></path>
                <path d="M96.178923,91.966373 L97.7973158,89.8402394 C100.400167,86.4207397 102.456875,82.6392501 103.912093,78.5975604 L72.5538225,78.5969242 C71.6956417,78.5969242 71,77.9012548 71,77.0430399 L71,58.5538843 C71,57.6956694 71.6956417,57 72.5538225,57 L127.815195,57 L128,64.2932363 C127.993002,78.7133463 123.278415,92.3315438 114.36644,103.675058 L112.539704,106 L96.178923,91.966373 Z" id="Path" fill="#1D81CE"></path>
                <path d="M97.6886241,39.3777652 C89.7301847,27.9936135 77.1900921,21.4639517 63.2827991,21.4639517 C51.8180859,21.4639517 41.0987164,26.0231762 33.0995358,34.3010361 L31.2582841,36.2069829 L15,22.2485859 L17.010849,20.1017482 C22.8899057,13.826887 29.8342354,8.88609369 37.6505541,5.41656869 C45.7479559,1.82248853 54.3721515,0 63.2831149,0 C73.7574052,0 84.1085243,2.57361303 93.2171933,7.44296097 C102.307229,12.3025089 110.182291,19.4581078 115.990287,28.1371365 L116.738789,29.2552877 C117.232421,29.9928186 117.004397,30.994318 116.240419,31.4454353 L100.409445,40.7858075 C99.7155801,41.1955118 98.8236942,41.0014081 98.3619601,40.3406967 L97.6886241,39.3777652 Z" id="SVGCleanerId_1_1_" fill="#CD2900"></path>
                <path d="M8.17871075,94.4432428 C2.82840296,85.0222651 0,74.3150156 0,63.4792652 C0,49.1288419 4.74688962,35.5819438 13.7279231,24.3035441 L15.5618035,22 L32,35.9431355 L30.3707709,38.0537704 C24.6833152,45.4225227 21.6767602,54.2145723 21.6767602,63.4795809 C21.6767602,70.4306264 23.4384859,77.3219994 26.7719722,83.4085844 L28.050644,85.7433855 L9.63042632,97 L8.17871075,94.4432428 Z" id="SVGCleanerId_2_1_" fill="#FFCE00"></path>
                <path d="M64.4088689,128 C43.3144882,128 23.5980095,117.481853 11.666566,99.864947 L10,97.4039333 L28.3249215,86 L29.858429,88.1914406 C37.7873197,99.523104 50.7035234,106.288333 64.4088689,106.288333 C75.7925179,106.288333 86.8757531,101.543143 94.8163936,93.2692 L96.6680983,91.3396578 L113,105.445398 L110.98221,107.617012 C105.069839,113.979001 98.0822023,118.988648 90.2139659,122.507168 C82.0627817,126.152001 73.3809512,128 64.4088689,128 Z" id="SVGCleanerId_3_1_" fill="#40A459"></path>
                <path d="M96.1790635,91.966373 L97.7974654,89.8402394 C100.400331,86.4207397 102.457051,82.6392501 103.912276,78.5975604 L72.5538312,78.5969242 C71.6956456,78.5969242 71,77.9012548 71,77.0430399 L71,58.5538843 C71,57.6956694 71.6956456,57 72.5538312,57 L126.482112,57 C127.22388,57 127.830144,57.5913349 127.848911,58.3331278 L128,64.2932363 C127.993002,78.7133463 123.278389,92.3315438 114.366364,103.675058 L112.539618,106 L96.1790635,91.966373 Z" id="Path" fill="#1D81CE"></path>
            </g>
        </g>
    </g>
</svg>